<?xml version="1.0" encoding="UTF-8"?>
<svg width="131px" height="84px" viewBox="0 0 131 84" version="1.1" xmlns="http://www.w3.org/2000/svg" xmlns:xlink="http://www.w3.org/1999/xlink">
    <title>logo_gitee_g_red_with_domain_name@1x</title>
    <g id="LOGO" stroke="none" stroke-width="1" fill="none" fill-rule="evenodd">
        <g id="Artboard-7" transform="translate(-162.000000, -498.000000)">
            <g id="logo_gitee_g_red_with_domain_name" transform="translate(162.912109, 498.000000)">
                <path d="M65.0878906,0 C82.7610026,0 97.0878906,14.326888 97.0878906,32 C97.0878906,49.673112 82.7610026,64 65.0878906,64 C47.4147786,64 33.0878906,49.673112 33.0878906,32 C33.0878906,14.326888 47.4147786,0 65.0878906,0 Z M81.2854302,14.223202 L59.1618994,14.223202 C52.6163384,14.223202 47.3101128,19.5294276 47.3101128,26.0749885 L47.3101128,48.1975396 C47.3101128,49.070281 48.0176096,49.7777778 48.890351,49.7777778 L72.1992939,49.7777778 C78.0901699,49.7777778 82.8656684,45.0022793 82.8656684,39.1114033 L82.8656684,30.025267 C82.8656684,29.1525256 82.1581717,28.4450288 81.2854302,28.4450288 L63.1126909,28.4450288 C62.240111,28.4454427 61.5326812,29.1526873 61.5320388,30.025267 L61.5310043,33.9757041 C61.5303852,34.7999598 62.1612552,35.4769866 62.9665696,35.5498604 L63.1104017,35.556356 C63.110544,35.556356 63.1106864,35.556356 63.1108287,35.5559291 L74.1743583,35.5558369 C74.9986141,35.5558176 75.675481,36.1868809 75.7481505,36.9922149 L75.7545965,37.1360619 L75.7545965,37.1360619 L75.7545965,37.926141 C75.7545965,40.5443654 73.6321063,42.6668557 71.0138819,42.6668557 L56.0004429,42.6668557 C55.1278267,42.6668121 54.4204247,41.9594297 54.4203571,41.0868135 L54.4199433,26.07483 C54.4197404,23.4566056 56.5421722,21.3340569 59.1603965,21.3339847 L59.1605272,21.3341154 L81.2810197,21.3341154 C82.1533785,21.333135 82.8607166,20.6262355 82.8622381,19.7538775 L82.8646883,15.8034399 C82.8661249,14.9791848 82.2355266,14.3019319 81.43024,14.2287696 L81.2864103,14.2222225 C81.2860836,14.2222223 81.2857569,14.2222222 81.2854302,14.223202 Z" id="Combined-Shape" fill="#C71D23"></path>
                <path d="M4.0546875,74.1699219 C4.86328529,74.1699219 5.56249705,74.3261703 6.15234375,74.6386719 C7.00781678,75.0878929 7.53124904,75.8749944 7.72265625,77 L6.56835938,77 C6.42773367,76.3710906 6.13672096,75.9130874 5.6953125,75.6259766 C5.25390404,75.3388658 4.69726898,75.1953125 4.02539062,75.1953125 C3.22851164,75.1953125 2.55761991,75.4941376 2.01269531,76.0917969 C1.46777071,76.6894561 1.1953125,77.5800722 1.1953125,78.7636719 C1.1953125,79.7871145 1.41991963,80.620114 1.86914062,81.2626953 C2.31836162,81.9052767 3.05077617,82.2265625 4.06640625,82.2265625 C4.84375389,82.2265625 5.48730214,82.0009788 5.99707031,81.5498047 C6.50683849,81.0986306 6.76757807,80.3691457 6.77929688,79.3613281 L4.08398438,79.3613281 L4.08398438,78.3945312 L7.86328125,78.3945312 L7.86328125,83 L7.11328125,83 L6.83203125,81.8925781 C6.43749803,82.326174 6.08789215,82.6269523 5.78320312,82.7949219 C5.27148182,83.0839858 4.6210977,83.2285156 3.83203125,83.2285156 C2.8124949,83.2285156 1.93555055,82.8984408 1.20117188,82.2382812 C0.400386621,81.4101521 0,80.2734447 0,78.828125 C0,77.3867115 0.390621094,76.2402386 1.171875,75.3886719 C1.91406621,74.5761678 2.8749941,74.1699219 4.0546875,74.1699219 Z M17.9316406,74.3925781 L19.109375,74.3925781 L19.109375,83 L17.9316406,83 L17.9316406,74.3925781 Z M35.265625,74.3925781 L35.265625,75.4179688 L32.3652344,75.4179688 L32.3652344,83 L31.1816406,83 L31.1816406,75.4179688 L28.28125,75.4179688 L28.28125,74.3925781 L35.265625,74.3925781 Z M44.4433594,74.3925781 L50.71875,74.3925781 L50.71875,75.4472656 L45.5800781,75.4472656 L45.5800781,78.0605469 L50.3320312,78.0605469 L50.3320312,79.0566406 L45.5800781,79.0566406 L45.5800781,81.9746094 L50.8066406,81.9746094 L50.8066406,83 L44.4433594,83 L44.4433594,74.3925781 Z M60.4472656,74.3925781 L66.7226562,74.3925781 L66.7226562,75.4472656 L61.5839844,75.4472656 L61.5839844,78.0605469 L66.3359375,78.0605469 L66.3359375,79.0566406 L61.5839844,79.0566406 L61.5839844,81.9746094 L66.8105469,81.9746094 L66.8105469,83 L60.4472656,83 L60.4472656,74.3925781 Z M76.4511719,81.7226562 L77.6757812,81.7226562 L77.6757812,83 L76.4511719,83 L76.4511719,81.7226562 Z M91.3007812,74.1582031 C92.3906304,74.1582031 93.2363251,74.4453096 93.8378906,75.0195312 C94.4394561,75.5937529 94.7734372,76.2460901 94.8398438,76.9765625 L93.703125,76.9765625 C93.5742181,76.4218722 93.3173847,75.9824235 92.9326172,75.6582031 C92.5478496,75.3339828 92.007816,75.171875 91.3125,75.171875 C90.4648395,75.171875 89.780276,75.4697236 89.2587891,76.0654297 C88.7373021,76.6611358 88.4765625,77.5742126 88.4765625,78.8046875 C88.4765625,79.812505 88.7119117,80.6298797 89.1826172,81.2568359 C89.6533227,81.8837922 90.3554641,82.1972656 91.2890625,82.1972656 C92.1484418,82.1972656 92.8027321,81.8671908 93.2519531,81.2070312 C93.4902356,80.8593733 93.6679682,80.4023466 93.7851562,79.8359375 L94.921875,79.8359375 C94.820312,80.742192 94.4843779,81.5019501 93.9140625,82.1152344 C93.2304653,82.8535193 92.3085996,83.2226562 91.1484375,83.2226562 C90.1484325,83.2226562 89.3085971,82.9199249 88.6289062,82.3144531 C87.7343705,81.5136679 87.2871094,80.2773521 87.2871094,78.6054688 C87.2871094,77.3359312 87.6230435,76.2949259 88.2949219,75.4824219 C89.021488,74.599605 90.0234311,74.1582031 91.3007812,74.1582031 Z M108.054688,74.1582031 C109.574226,74.1582031 110.699215,74.6464795 111.429688,75.6230469 C112.000003,76.3847694 112.285156,77.3593691 112.285156,78.546875 C112.285156,79.8320377 111.958988,80.9003864 111.306641,81.7519531 C110.541012,82.7519581 109.449226,83.2519531 108.03125,83.2519531 C106.707025,83.2519531 105.666019,82.8144575 104.908203,81.9394531 C104.232418,81.0956989 103.894531,80.0293033 103.894531,78.7402344 C103.894531,77.5761661 104.183591,76.5800823 104.761719,75.7519531 C105.50391,74.6894478 106.601555,74.1582031 108.054688,74.1582031 Z M108.171875,82.2089844 C109.199224,82.2089844 109.942381,81.840824 110.401367,81.1044922 C110.860354,80.3681604 111.089844,79.5214892 111.089844,78.5644531 C111.089844,77.5527293 110.825198,76.7382843 110.295898,76.1210938 C109.766599,75.5039032 109.042973,75.1953125 108.125,75.1953125 C107.234371,75.1953125 106.507815,75.5009735 105.945312,76.1123047 C105.38281,76.7236359 105.101562,77.624994 105.101562,78.8164062 C105.101562,79.769536 105.342771,80.5732389 105.825195,81.2275391 C106.30762,81.8818392 107.089838,82.2089844 108.171875,82.2089844 Z M121.644531,74.3925781 L123.314453,74.3925781 L125.787109,81.6699219 L128.242188,74.3925781 L129.894531,74.3925781 L129.894531,83 L128.787109,83 L128.787109,77.9199219 C128.787109,77.7441397 128.791016,77.453127 128.798828,77.046875 C128.806641,76.640623 128.810547,76.2050804 128.810547,75.7402344 L126.355469,83 L125.201172,83 L122.728516,75.7402344 L122.728516,76.0039062 C122.728516,76.2148448 122.733398,76.5361307 122.743164,76.9677734 C122.75293,77.3994162 122.757812,77.7167959 122.757812,77.9199219 L122.757812,83 L121.644531,83 L121.644531,74.3925781 Z" id="gitee.com" fill="#2D3131"></path>
            </g>
        </g>
    </g>
</svg>